<svg width="25" height="25" viewBox="0 0 25 25" fill="none" xmlns="http://www.w3.org/2000/svg">
    <path d="M18.97 17.33L19.36 20.49C19.46 21.32 18.57 21.9 17.86 21.47L14.4 19.41C14.16 19.27 14.1 18.97 14.23 18.73C14.73 17.81 15 16.77 15 15.73C15 12.07 11.86 9.09 7.99999 9.09C7.20999 9.09 6.43999 9.21 5.71999 9.45C5.34999 9.57 4.98999 9.23 5.07999 8.85C5.98999 5.21 9.48999 2.5 13.67 2.5C18.55 2.5 22.5 6.19 22.5 10.74C22.5 13.44 21.11 15.83 18.97 17.33Z" fill="#9D9FA4"/>
    <path d="M13.5 15.73C13.5 16.92 13.06 18.02 12.32 18.89C11.33 20.09 9.76 20.86 8 20.86L5.39 22.41C4.95 22.68 4.39 22.31 4.45 21.8L4.7 19.83C3.36 18.9 2.5 17.41 2.5 15.73C2.5 13.97 3.44 12.42 4.88 11.5C5.77 10.92 6.84 10.59 8 10.59C11.04 10.59 13.5 12.89 13.5 15.73Z" fill="#9D9FA4"/>
</svg>
