<svg width="25" height="25" viewBox="0 0 25 25" fill="none" xmlns="http://www.w3.org/2000/svg">
    <path d="M22.5 12.5C22.5 6.99 18.01 2.5 12.5 2.5C6.99 2.5 2.5 6.99 2.5 12.5C2.5 15.4 3.75 18.01 5.73 19.84C5.73 19.85 5.73 19.85 5.72 19.86C5.82 19.96 5.94 20.04 6.04 20.13C6.1 20.18 6.15 20.23 6.21 20.27C6.39 20.42 6.59 20.56 6.78 20.7C6.85 20.75 6.91 20.79 6.98 20.84C7.17 20.97 7.37 21.09 7.58 21.2C7.65 21.24 7.73 21.29 7.8 21.33C8 21.44 8.21 21.54 8.43 21.63C8.51 21.67 8.59 21.71 8.67 21.74C8.89 21.83 9.11 21.91 9.33 21.98C9.41 22.01 9.49 22.04 9.57 22.06C9.81 22.13 10.05 22.19 10.29 22.25C10.36 22.27 10.43 22.29 10.51 22.3C10.79 22.36 11.07 22.4 11.36 22.43C11.4 22.43 11.44 22.44 11.48 22.45C11.82 22.48 12.16 22.5 12.5 22.5C12.84 22.5 13.18 22.48 13.51 22.45C13.55 22.45 13.59 22.44 13.63 22.43C13.92 22.4 14.2 22.36 14.48 22.3C14.55 22.29 14.62 22.26 14.7 22.25C14.94 22.19 15.19 22.14 15.42 22.06C15.5 22.03 15.58 22 15.66 21.98C15.88 21.9 16.11 21.83 16.32 21.74C16.4 21.71 16.48 21.67 16.56 21.63C16.77 21.54 16.98 21.44 17.19 21.33C17.27 21.29 17.34 21.24 17.41 21.2C17.61 21.08 17.81 20.97 18.01 20.84C18.08 20.8 18.14 20.75 18.21 20.7C18.41 20.56 18.6 20.42 18.78 20.27C18.84 20.22 18.89 20.17 18.95 20.13C19.06 20.04 19.17 19.95 19.27 19.86C19.27 19.85 19.27 19.85 19.26 19.84C21.25 18.01 22.5 15.4 22.5 12.5ZM17.44 17.47C14.73 15.65 10.29 15.65 7.56 17.47C7.12 17.76 6.76 18.1 6.46 18.47C4.94 16.93 4 14.82 4 12.5C4 7.81 7.81 4 12.5 4C17.19 4 21 7.81 21 12.5C21 14.82 20.06 16.93 18.54 18.47C18.25 18.1 17.88 17.76 17.44 17.47Z" fill="#9D9FA4"/>
    <path d="M12.5 7.42999C10.43 7.42999 8.75 9.10999 8.75 11.18C8.75 13.21 10.34 14.86 12.45 14.92C12.48 14.92 12.52 14.92 12.54 14.92C12.56 14.92 12.59 14.92 12.61 14.92C12.62 14.92 12.63 14.92 12.63 14.92C14.65 14.85 16.24 13.21 16.25 11.18C16.25 9.10999 14.57 7.42999 12.5 7.42999Z" fill="#9D9FA4"/>
</svg>
