<svg width="25" height="25" viewBox="0 0 25 25" fill="none" xmlns="http://www.w3.org/2000/svg">
    <path d="M22.86 8.77L22.57 6C22.15 2.98 20.78 1.75 17.85 1.75H15.49H14.01H10.97H9.49H7.09C4.15 1.75 2.79 2.98 2.36 6.03L2.09 8.78C1.99 9.85 2.28 10.89 2.91 11.7C3.67 12.69 4.84 13.25 6.14 13.25C7.4 13.25 8.61 12.62 9.37 11.61C10.05 12.62 11.21 13.25 12.5 13.25C13.79 13.25 14.92 12.65 15.61 11.65C16.38 12.64 17.57 13.25 18.81 13.25C20.14 13.25 21.34 12.66 22.09 11.62C22.69 10.82 22.96 9.81 22.86 8.77Z" fill="#9D9FA4"/>
    <path d="M11.85 17.16C10.58 17.29 9.62 18.37 9.62 19.65V22.39C9.62 22.66 9.83999 22.88 10.11 22.88H14.88C15.15 22.88 15.37 22.66 15.37 22.39V20C15.38 17.91 14.15 16.92 11.85 17.16Z" fill="#9D9FA4"/>
    <path d="M21.87 14.9V17.88C21.87 20.64 19.63 22.88 16.87 22.88C16.6 22.88 16.38 22.66 16.38 22.39V20C16.38 18.72 15.99 17.72 15.23 17.04C14.56 16.43 13.65 16.13 12.52 16.13C12.27 16.13 12.02 16.14 11.75 16.17C9.97001 16.35 8.62 17.85 8.62 19.65V22.39C8.62 22.66 8.4 22.88 8.13 22.88C5.37 22.88 3.13 20.64 3.13 17.88V14.92C3.13 14.22 3.82 13.75 4.47 13.98C4.74 14.07 5.01 14.14 5.29 14.18C5.41 14.2 5.54 14.22 5.66 14.22C5.82 14.24 5.98 14.25 6.14 14.25C7.3 14.25 8.44 13.82 9.34 13.08C10.2 13.82 11.32 14.25 12.5 14.25C13.69 14.25 14.79 13.84 15.65 13.1C16.55 13.83 17.67 14.25 18.81 14.25C18.99 14.25 19.17 14.24 19.34 14.22C19.46 14.21 19.57 14.2 19.68 14.18C19.99 14.14 20.27 14.05 20.55 13.96C21.2 13.74 21.87 14.22 21.87 14.9Z" fill="#9D9FA4"/>
</svg>
