<svg width="14" height="14" viewBox="0 0 14 14" fill="none" xmlns="http://www.w3.org/2000/svg">
<path d="M12.425 6.32331C12.6525 6.32331 12.8333 6.14248 12.8333 5.91498V5.37248C12.8333 2.98081 12.1042 2.25165 9.7125 2.25165H4.2875C1.89583 2.25165 1.16667 2.98081 1.16667 5.37248V5.64665C1.16667 5.87415 1.3475 6.05498 1.575 6.05498C2.1 6.05498 2.52583 6.48081 2.52583 7.00581C2.52583 7.53081 2.1 7.95081 1.575 7.95081C1.3475 7.95081 1.16667 8.13165 1.16667 8.35915V8.63331C1.16667 11.025 1.89583 11.7541 4.2875 11.7541H9.7125C12.1042 11.7541 12.8333 11.025 12.8333 8.63331C12.8333 8.40581 12.6525 8.22498 12.425 8.22498C11.9 8.22498 11.4742 7.79915 11.4742 7.27415C11.4742 6.74915 11.9 6.32331 12.425 6.32331ZM5.25 5.17998C5.57083 5.17998 5.83333 5.44248 5.83333 5.76331C5.83333 6.08415 5.57667 6.34665 5.25 6.34665C4.92917 6.34665 4.66667 6.08415 4.66667 5.76331C4.66667 5.44248 4.92333 5.17998 5.25 5.17998ZM8.75 9.26331C8.42333 9.26331 8.16083 9.00081 8.16083 8.67998C8.16083 8.35915 8.42333 8.09665 8.74417 8.09665C9.065 8.09665 9.3275 8.35915 9.3275 8.67998C9.3275 9.00081 9.07667 9.26331 8.75 9.26331ZM9.275 5.52998L5.34917 9.45581C5.26167 9.54331 5.15083 9.58415 5.04 9.58415C4.92917 9.58415 4.81833 9.54331 4.73083 9.45581C4.56167 9.28665 4.56167 9.00665 4.73083 8.83748L8.65667 4.91165C8.82583 4.74248 9.10583 4.74248 9.275 4.91165C9.44417 5.08081 9.44417 5.36081 9.275 5.52998Z" fill="#26386A"/>
</svg>
