<svg width="20" height="20" viewBox="0 0 20 20" fill="none" xmlns="http://www.w3.org/2000/svg">
    <path d="M4.325 5.31666C4.16667 5.31666 4 5.25 3.88334 5.13333C3.64167 4.89166 3.64167 4.49166 3.88334 4.25L6.90834 1.225C7.15 0.98333 7.55 0.98333 7.79167 1.225C8.03334 1.46666 8.03334 1.86666 7.79167 2.10833L4.76667 5.13333C4.64167 5.25 4.48334 5.31666 4.325 5.31666Z" fill="#292D32"/>
    <path d="M15.675 5.31666C15.5167 5.31666 15.3583 5.25833 15.2333 5.13333L12.2083 2.10833C11.9667 1.86666 11.9667 1.46666 12.2083 1.225C12.45 0.98333 12.85 0.98333 13.0917 1.225L16.1167 4.25C16.3583 4.49166 16.3583 4.89166 16.1167 5.13333C16 5.25 15.8333 5.31666 15.675 5.31666Z" fill="#292D32"/>
    <path d="M16.8417 8.83333C16.7833 8.83333 16.725 8.83333 16.6667 8.83333H16.475H3.33332C2.74999 8.84167 2.08332 8.84167 1.59999 8.35833C1.21666 7.98333 1.04166 7.4 1.04166 6.54167C1.04166 4.25 2.71666 4.25 3.51666 4.25H16.4833C17.2833 4.25 18.9583 4.25 18.9583 6.54167C18.9583 7.40833 18.7833 7.98333 18.4 8.35833C17.9667 8.79167 17.3833 8.83333 16.8417 8.83333ZM3.51666 7.58333H16.675C17.05 7.59167 17.4 7.59167 17.5167 7.475C17.575 7.41667 17.7 7.21667 17.7 6.54167C17.7 5.6 17.4667 5.5 16.475 5.5H3.51666C2.52499 5.5 2.29166 5.6 2.29166 6.54167C2.29166 7.21667 2.42499 7.41667 2.47499 7.475C2.59166 7.58333 2.94999 7.58333 3.31666 7.58333H3.51666Z" fill="#292D32"/>
    <path d="M8.13333 15.25C7.79166 15.25 7.50833 14.9667 7.50833 14.625V11.6667C7.50833 11.325 7.79166 11.0417 8.13333 11.0417C8.475 11.0417 8.75833 11.325 8.75833 11.6667V14.625C8.75833 14.975 8.475 15.25 8.13333 15.25Z" fill="#292D32"/>
    <path d="M11.9667 15.25C11.625 15.25 11.3417 14.9667 11.3417 14.625V11.6667C11.3417 11.325 11.625 11.0417 11.9667 11.0417C12.3083 11.0417 12.5917 11.325 12.5917 11.6667V14.625C12.5917 14.975 12.3083 15.25 11.9667 15.25Z" fill="#292D32"/>
    <path d="M12.4083 18.9583H7.38332C4.39999 18.9583 3.73332 17.1833 3.47499 15.6417L2.29999 8.43333C2.24166 8.09167 2.47499 7.775 2.81666 7.71667C3.15832 7.65833 3.47499 7.89167 3.53332 8.23333L4.70832 15.4333C4.94999 16.9083 5.44999 17.7083 7.38332 17.7083H12.4083C14.55 17.7083 14.7917 16.9583 15.0667 15.5083L16.4667 8.21667C16.5333 7.875 16.8583 7.65 17.2 7.725C17.5417 7.79167 17.7583 8.11667 17.6917 8.45833L16.2917 15.75C15.9667 17.4417 15.425 18.9583 12.4083 18.9583Z" fill="#292D32"/>
</svg>
