<svg width="21" height="20" viewBox="0 0 21 20" fill="none" xmlns="http://www.w3.org/2000/svg">
<path d="M13.4002 18.9584H8.40023C3.87523 18.9584 1.94189 17.025 1.94189 12.5V7.50002C1.94189 2.97502 3.87523 1.04169 8.40023 1.04169H10.0669C10.4086 1.04169 10.6919 1.32502 10.6919 1.66669C10.6919 2.00835 10.4086 2.29169 10.0669 2.29169H8.40023C4.55856 2.29169 3.19189 3.65835 3.19189 7.50002V12.5C3.19189 16.3417 4.55856 17.7084 8.40023 17.7084H13.4002C17.2419 17.7084 18.6086 16.3417 18.6086 12.5V10.8334C18.6086 10.4917 18.8919 10.2084 19.2336 10.2084C19.5752 10.2084 19.8586 10.4917 19.8586 10.8334V12.5C19.8586 17.025 17.9252 18.9584 13.4002 18.9584Z" fill="#272727"/>
<path d="M7.98351 14.7417C7.47517 14.7417 7.00851 14.5583 6.66684 14.225C6.25851 13.8167 6.08351 13.225 6.17517 12.6L6.53351 10.0917C6.60017 9.60832 6.91684 8.98332 7.25851 8.64165L13.8252 2.07499C15.4835 0.416655 17.1668 0.416655 18.8252 2.07499C19.7335 2.98332 20.1418 3.90832 20.0585 4.83332C19.9835 5.58332 19.5835 6.31665 18.8252 7.06665L12.2585 13.6333C11.9168 13.975 11.2918 14.2917 10.8085 14.3583L8.30017 14.7167C8.19184 14.7417 8.08351 14.7417 7.98351 14.7417ZM14.7085 2.95832L8.14184 9.52499C7.98351 9.68332 7.80017 10.05 7.76684 10.2667L7.40851 12.775C7.37517 13.0167 7.42517 13.2167 7.55017 13.3417C7.67517 13.4667 7.87517 13.5167 8.11684 13.4833L10.6252 13.125C10.8418 13.0917 11.2168 12.9083 11.3668 12.75L17.9335 6.18332C18.4752 5.64165 18.7585 5.15832 18.8002 4.70832C18.8502 4.16665 18.5668 3.59165 17.9335 2.94999C16.6002 1.61665 15.6835 1.99165 14.7085 2.95832Z" fill="#272727"/>
<path d="M17.4417 8.19167C17.3834 8.19167 17.325 8.18334 17.275 8.16667C15.0834 7.55 13.3417 5.80834 12.725 3.61667C12.6334 3.28334 12.825 2.94167 13.1584 2.84167C13.4917 2.75 13.8334 2.94167 13.925 3.275C14.425 5.05 15.8334 6.45834 17.6084 6.95834C17.9417 7.05 18.1334 7.4 18.0417 7.73334C17.9667 8.01667 17.7167 8.19167 17.4417 8.19167Z" fill="#272727"/>
</svg>
