<svg width="14" height="12" viewBox="0 0 14 12" fill="none" xmlns="http://www.w3.org/2000/svg">
<path d="M8.88654 0.645325C9.07814 0.664542 9.25851 0.749585 9.39532 0.887512L9.39435 0.888489L13.2537 4.74689H13.2527C13.4109 4.90106 13.5008 5.11249 13.5008 5.3338C13.5007 5.55493 13.4108 5.76568 13.2527 5.91974L13.2537 5.92072L9.39435 9.77814L9.39532 9.77911C9.2389 9.93682 9.02565 10.0252 8.80353 10.0252C8.58189 10.0252 8.36907 9.93711 8.21271 9.78009L8.0799 9.64728V9.6463C7.9195 9.48814 7.83053 9.27123 7.8338 9.04572V7.8465C6.4942 7.90821 5.18213 8.21169 4.14825 8.67267C2.94884 9.20753 2.27559 9.8794 2.15802 10.4881L2.15607 10.4871C2.08223 10.8797 1.74145 11.1653 1.34161 11.1668H1.27325C1.0898 11.1666 0.912456 11.1036 0.770325 10.9901L0.711731 10.9383L0.678528 10.9061L0.652161 10.869C0.541204 10.712 0.489419 10.5214 0.502747 10.3299H0.500793C0.742611 6.33679 3.89519 3.16842 7.8338 2.85822V1.6131C7.83259 1.39026 7.92125 1.17674 8.0799 1.02032V1.01935L8.21271 0.886536C8.36907 0.72954 8.5819 0.641418 8.80353 0.641418L8.88654 0.645325Z" fill="white" stroke="#272727"/>
</svg>
