<svg width="20" height="20" viewBox="0 0 20 20" fill="none" xmlns="http://www.w3.org/2000/svg">
<path d="M5.83341 1.66669H5.00008C2.50008 1.66669 1.66675 3.15835 1.66675 5.00002V5.83335V17.5C1.66675 18.1917 2.45008 18.5834 3.00008 18.1667L4.42508 17.1C4.75841 16.85 5.22508 16.8834 5.52508 17.1834L6.90841 18.575C7.23341 18.9 7.76675 18.9 8.09175 18.575L9.49175 17.175C9.78341 16.8834 10.2501 16.85 10.5751 17.1L12.0001 18.1667C12.5501 18.575 13.3334 18.1834 13.3334 17.5V3.33335C13.3334 2.41669 14.0834 1.66669 15.0001 1.66669H5.83341ZM4.97508 11.675C4.51675 11.675 4.14175 11.3 4.14175 10.8417C4.14175 10.3834 4.51675 10.0084 4.97508 10.0084C5.43341 10.0084 5.80841 10.3834 5.80841 10.8417C5.80841 11.3 5.43341 11.675 4.97508 11.675ZM4.97508 8.34169C4.51675 8.34169 4.14175 7.96669 4.14175 7.50835C4.14175 7.05002 4.51675 6.67502 4.97508 6.67502C5.43341 6.67502 5.80841 7.05002 5.80841 7.50835C5.80841 7.96669 5.43341 8.34169 4.97508 8.34169ZM10.0001 11.4667H7.50008C7.15841 11.4667 6.87508 11.1834 6.87508 10.8417C6.87508 10.5 7.15841 10.2167 7.50008 10.2167H10.0001C10.3417 10.2167 10.6251 10.5 10.6251 10.8417C10.6251 11.1834 10.3417 11.4667 10.0001 11.4667ZM10.0001 8.13335H7.50008C7.15841 8.13335 6.87508 7.85002 6.87508 7.50835C6.87508 7.16669 7.15841 6.88335 7.50008 6.88335H10.0001C10.3417 6.88335 10.6251 7.16669 10.6251 7.50835C10.6251 7.85002 10.3417 8.13335 10.0001 8.13335Z" fill="white"/>
<path d="M15.0083 1.66669V2.91669C15.5583 2.91669 16.0833 3.14169 16.4666 3.51669C16.8666 3.92502 17.0833 4.45002 17.0833 5.00002V7.01669C17.0833 7.63335 16.8083 7.91669 16.1833 7.91669H14.5833V3.34169C14.5833 3.10835 14.7749 2.91669 15.0083 2.91669V1.66669ZM15.0083 1.66669C14.0833 1.66669 13.3333 2.41669 13.3333 3.34169V9.16669H16.1833C17.4999 9.16669 18.3333 8.33335 18.3333 7.01669V5.00002C18.3333 4.08335 17.9583 3.25002 17.3583 2.64169C16.7499 2.04169 15.9249 1.67502 15.0083 1.66669C15.0166 1.66669 15.0083 1.66669 15.0083 1.66669Z" fill="white"/>
</svg>
