<svg width="21" height="20" viewBox="0 0 21 20" fill="none" xmlns="http://www.w3.org/2000/svg">
<path d="M18.6415 15V15.8334C18.6415 17.2084 18.6415 18.3334 16.1415 18.3334H4.47485C1.97485 18.3334 1.97485 17.2084 1.97485 15.8334V15C1.97485 14.5417 2.34985 14.1667 2.80819 14.1667H17.8082C18.2665 14.1667 18.6415 14.5417 18.6415 15Z" fill="white"/>
<path d="M12.3417 4.31666C12.3833 4.14999 12.4083 3.99166 12.4167 3.81666C12.4417 2.84999 11.85 1.99999 10.9167 1.74999C9.51668 1.36666 8.25002 2.41666 8.25002 3.74999C8.25002 3.94999 8.27502 4.13333 8.32502 4.31666C5.31668 4.95833 3.05835 7.63333 3.05835 10.8333V12.0833C3.05835 12.5417 3.43335 12.9167 3.89168 12.9167H16.7667C17.225 12.9167 17.6 12.5417 17.6 12.0833V10.8333C17.6 7.63333 15.35 4.96666 12.3417 4.31666ZM12.8333 9.79166H7.83335C7.49168 9.79166 7.20835 9.50833 7.20835 9.16666C7.20835 8.82499 7.49168 8.54166 7.83335 8.54166H12.8333C13.175 8.54166 13.4584 8.82499 13.4584 9.16666C13.4584 9.50833 13.175 9.79166 12.8333 9.79166Z" fill="white"/>
</svg>
