<svg width="25" height="25" viewBox="0 0 25 25" fill="none" xmlns="http://www.w3.org/2000/svg">
    <path d="M15.5 7.57003C15.5 6.90003 15.17 6.28003 14.61 5.91003L10.61 3.24003C9.94 2.79003 9.06 2.79003 8.39 3.24003L4.39 5.91003C3.84 6.28003 3.5 6.90003 3.5 7.57003V13.25C3.5 13.53 3.72 13.75 4 13.75H15C15.28 13.75 15.5 13.53 15.5 13.25V7.57003ZM9.5 11.25C8.54 11.25 7.75 10.46 7.75 9.50003C7.75 8.54003 8.54 7.75003 9.5 7.75003C10.46 7.75003 11.25 8.54003 11.25 9.50003C11.25 10.46 10.46 11.25 9.5 11.25Z" fill="#9D9FA4"/>
    <path d="M22.5 21.75H21.23V18.75C22.18 18.44 22.87 17.55 22.87 16.5V14.5C22.87 13.19 21.8 12.12 20.49 12.12C19.18 12.12 18.11 13.19 18.11 14.5V16.5C18.11 17.54 18.79 18.42 19.72 18.74V21.75H15.5V15.75C15.5 15.47 15.28 15.25 15 15.25H4C3.72 15.25 3.5 15.47 3.5 15.75V21.75H2.5C2.09 21.75 1.75 22.09 1.75 22.5C1.75 22.91 2.09 23.25 2.5 23.25H20.43C20.45 23.25 20.46 23.26 20.48 23.26C20.5 23.26 20.51 23.25 20.53 23.25H22.5C22.91 23.25 23.25 22.91 23.25 22.5C23.25 22.09 22.91 21.75 22.5 21.75ZM8.75 18.75C8.75 18.34 9.09 18 9.5 18C9.91 18 10.25 18.34 10.25 18.75V21.75H8.75V18.75Z" fill="#9D9FA4"/>
</svg>
