<svg width="14" height="15" viewBox="0 0 14 15" fill="none" xmlns="http://www.w3.org/2000/svg">
<path d="M3.19084 6.77085C2.77668 6.77085 2.35668 6.61919 2.03584 6.31002C0.962509 5.28919 0.530842 4.17502 0.781676 3.08419C1.07918 1.80085 2.20501 1.22919 3.19084 1.22919C4.17668 1.22919 5.30834 1.80669 5.60001 3.08419C5.85084 4.17502 5.41334 5.28919 4.34584 6.31002C4.02501 6.61919 3.61084 6.77085 3.19084 6.77085ZM1.63334 3.28252C1.41168 4.25669 2.05918 5.12002 2.64251 5.67419C2.95168 5.97169 3.43584 5.96585 3.74501 5.67419C4.32834 5.12002 4.97584 4.25669 4.74834 3.27669C4.55001 2.41335 3.78584 2.10419 3.19668 2.10419C2.60168 2.10419 1.83751 2.41335 1.63334 3.28252Z" fill="#9D9FA4"/>
<path d="M3.21419 4.11668C2.89336 4.11668 2.63086 3.85418 2.63086 3.53335C2.63086 3.21251 2.88753 2.95001 3.21419 2.95001H3.22003C3.54086 2.95001 3.80336 3.21251 3.80336 3.53335C3.80336 3.85418 3.54086 4.11668 3.21419 4.11668Z" fill="#9D9FA4"/>
<path d="M10.7859 13.7708C10.3717 13.7708 9.9517 13.6192 9.62503 13.31C8.54586 12.2892 8.10836 11.175 8.36503 10.0783C8.66253 8.80083 9.7942 8.22333 10.7859 8.22333C11.7775 8.22333 12.9092 8.80083 13.2067 10.0783C13.4575 11.1692 13.02 12.2892 11.9409 13.3042C11.62 13.6192 11.2059 13.7708 10.7859 13.7708ZM10.7859 9.10416C10.1909 9.10416 9.42086 9.41333 9.2167 10.2825C8.9892 11.2567 9.64253 12.1258 10.2259 12.68C10.535 12.9775 11.025 12.9775 11.34 12.68C11.9234 12.1258 12.5767 11.2625 12.3492 10.2883C12.1567 9.41333 11.3867 9.10416 10.7859 9.10416Z" fill="#9D9FA4"/>
<path d="M10.8092 11.1167C10.4883 11.1167 10.2258 10.8542 10.2258 10.5333C10.2258 10.2125 10.4825 9.95001 10.8092 9.95001H10.815C11.1358 9.95001 11.3983 10.2125 11.3983 10.5333C11.3983 10.8542 11.13 11.1167 10.8092 11.1167Z" fill="#9D9FA4"/>
<path d="M6.99999 12.0209H5.43665C4.75999 12.0209 4.17082 11.6125 3.93749 10.9825C3.69832 10.3525 3.87332 9.65835 4.38082 9.20919L9.04165 5.13169C9.32165 4.88669 9.32749 4.55419 9.24582 4.32669C9.15832 4.09919 8.93665 3.85419 8.56332 3.85419H6.99999C6.76082 3.85419 6.56249 3.65585 6.56249 3.41669C6.56249 3.17752 6.76082 2.97919 6.99999 2.97919H8.56332C9.23999 2.97919 9.82915 3.38752 10.0625 4.01752C10.3017 4.64752 10.1267 5.34169 9.61915 5.79085L4.95832 9.86835C4.67832 10.1134 4.67249 10.4459 4.75415 10.6734C4.84165 10.9009 5.06332 11.1459 5.43665 11.1459H6.99999C7.23915 11.1459 7.43749 11.3442 7.43749 11.5834C7.43749 11.8225 7.23915 12.0209 6.99999 12.0209Z" fill="#9D9FA4"/>
<path d="M6.99999 12.0209H5.43665C4.75999 12.0209 4.17082 11.6125 3.93749 10.9825C3.69832 10.3525 3.87332 9.65835 4.38082 9.20919L9.04165 5.13169C9.32165 4.88669 9.32749 4.55419 9.24582 4.32669C9.15832 4.09919 8.93665 3.85419 8.56332 3.85419H6.99999C6.76082 3.85419 6.56249 3.65585 6.56249 3.41669C6.56249 3.17752 6.76082 2.97919 6.99999 2.97919H8.56332C9.23999 2.97919 9.82915 3.38752 10.0625 4.01752C10.3017 4.64752 10.1267 5.34169 9.61915 5.79085L4.95832 9.86835C4.67832 10.1134 4.67249 10.4459 4.75415 10.6734C4.84165 10.9009 5.06332 11.1459 5.43665 11.1459H6.99999C7.23915 11.1459 7.43749 11.3442 7.43749 11.5834C7.43749 11.8225 7.23915 12.0209 6.99999 12.0209Z" fill="#9D9FA4"/>
</svg>
