<svg width="16" height="16" viewBox="0 0 16 16" fill="none" xmlns="http://www.w3.org/2000/svg">
<path d="M9.88654 2.64532C10.0781 2.66454 10.2585 2.74959 10.3953 2.88751L10.3943 2.88849L14.2537 6.74689H14.2527C14.4109 6.90106 14.5008 7.11249 14.5008 7.3338C14.5007 7.55493 14.4108 7.76568 14.2527 7.91974L14.2537 7.92072L10.3943 11.7781L10.3953 11.7791C10.2389 11.9368 10.0256 12.0252 9.80353 12.0252C9.58189 12.0252 9.36907 11.9371 9.21271 11.7801L9.0799 11.6473V11.6463C8.9195 11.4881 8.83053 11.2712 8.8338 11.0457V9.8465C7.4942 9.90821 6.18213 10.2117 5.14825 10.6727C3.94884 11.2075 3.27559 11.8794 3.15802 12.4881L3.15607 12.4871C3.08223 12.8797 2.74145 13.1653 2.34161 13.1668H2.27325C2.0898 13.1666 1.91246 13.1036 1.77032 12.9901L1.71173 12.9383L1.67853 12.9061L1.65216 12.869C1.5412 12.712 1.48942 12.5214 1.50275 12.3299H1.50079C1.74261 8.33679 4.89519 5.16842 8.8338 4.85822V3.6131C8.83259 3.39026 8.92125 3.17674 9.0799 3.02032V3.01935L9.21271 2.88654C9.36907 2.72954 9.5819 2.64142 9.80353 2.64142L9.88654 2.64532Z" fill="white" stroke="#272727"/>
</svg>
