<svg width="14" height="15" viewBox="0 0 14 15" fill="none" xmlns="http://www.w3.org/2000/svg">
<path d="M8.00917 2.54748L9.03584 4.60081C9.17584 4.88665 9.54917 5.16081 9.86417 5.21331L11.725 5.52248C12.915 5.72081 13.195 6.58415 12.3375 7.43581L10.8908 8.88248C10.6458 9.12748 10.5117 9.59998 10.5875 9.93831L11.0017 11.7291C11.3283 13.1466 10.5758 13.695 9.32167 12.9541L7.57751 11.9216C7.26251 11.735 6.74334 11.735 6.42251 11.9216L4.67834 12.9541C3.43001 13.695 2.67167 13.1408 2.99834 11.7291L3.41251 9.93831C3.48834 9.59998 3.35417 9.12748 3.10917 8.88248L1.66251 7.43581C0.810841 6.58415 1.08501 5.72081 2.27501 5.52248L4.13584 5.21331C4.44501 5.16081 4.81834 4.88665 4.95834 4.60081L5.98501 2.54748C6.54501 1.43331 7.45501 1.43331 8.00917 2.54748Z" fill="#E39400"/>
</svg>
