<svg width="21" height="20" viewBox="0 0 21 20" fill="none" xmlns="http://www.w3.org/2000/svg">
<path d="M18.5835 12.9167C18.8168 12.9167 19.0002 13.1 19.0002 13.3334V14.1667C19.0002 15.55 17.8835 16.6667 16.5002 16.6667C16.5002 15.2917 15.3752 14.1667 14.0002 14.1667C12.6252 14.1667 11.5002 15.2917 11.5002 16.6667H9.8335C9.8335 15.2917 8.7085 14.1667 7.3335 14.1667C5.9585 14.1667 4.8335 15.2917 4.8335 16.6667C3.45016 16.6667 2.3335 15.55 2.3335 14.1667V12.5C2.3335 12.0417 2.7085 11.6667 3.16683 11.6667H11.0835C12.2335 11.6667 13.1668 10.7334 13.1668 9.58335V5.00002C13.1668 4.54169 13.5418 4.16669 14.0002 4.16669H14.7002C15.3002 4.16669 15.8502 4.49169 16.1502 5.00835L16.6835 5.94169C16.7585 6.07502 16.6585 6.25002 16.5002 6.25002C15.3502 6.25002 14.4168 7.18335 14.4168 8.33335V10.8334C14.4168 11.9834 15.3502 12.9167 16.5002 12.9167H18.5835Z" fill="#26386A"/>
<path d="M7.33341 18.3333C8.25389 18.3333 9.00008 17.5871 9.00008 16.6667C9.00008 15.7462 8.25389 15 7.33341 15C6.41294 15 5.66675 15.7462 5.66675 16.6667C5.66675 17.5871 6.41294 18.3333 7.33341 18.3333Z" fill="#26386A"/>
<path d="M14.0002 18.3333C14.9206 18.3333 15.6668 17.5871 15.6668 16.6667C15.6668 15.7462 14.9206 15 14.0002 15C13.0797 15 12.3335 15.7462 12.3335 16.6667C12.3335 17.5871 13.0797 18.3333 14.0002 18.3333Z" fill="#26386A"/>
<path d="M19.0001 10.4417V11.6667H16.5001C16.0417 11.6667 15.6667 11.2917 15.6667 10.8333V8.33333C15.6667 7.875 16.0417 7.5 16.5001 7.5H17.5751L18.7834 9.61667C18.9251 9.86667 19.0001 10.15 19.0001 10.4417Z" fill="#26386A"/>
<path d="M11.5666 1.66669H5.40825C3.91659 1.66669 2.66659 2.73335 2.39159 4.15002H6.03325C6.34992 4.15002 6.59992 4.40835 6.59992 4.72502C6.59992 5.04169 6.34992 5.29169 6.03325 5.29169H2.33325V6.44169H4.49992C4.81659 6.44169 5.07492 6.70002 5.07492 7.01669C5.07492 7.33335 4.81659 7.58335 4.49992 7.58335H2.33325V8.73335H2.97492C3.29159 8.73335 3.54992 8.99169 3.54992 9.30835C3.54992 9.62502 3.29159 9.87502 2.97492 9.87502H2.33325V10.0667C2.33325 10.525 2.70825 10.9 3.16659 10.9H10.7916C11.6416 10.9 12.3333 10.2084 12.3333 9.35835V2.43335C12.3333 2.00835 11.9916 1.66669 11.5666 1.66669Z" fill="#26386A"/>
<path d="M2.39167 4.15002H2.26667H1.45C1.13333 4.15002 0.875 4.40836 0.875 4.72502C0.875 5.04169 1.13333 5.29169 1.45 5.29169H2.20833H2.33333V4.74169C2.33333 4.54169 2.35833 4.34169 2.39167 4.15002Z" fill="#26386A"/>
<path d="M2.20833 6.44171H1.45C1.13333 6.44171 0.875 6.70004 0.875 7.01671C0.875 7.33338 1.13333 7.58338 1.45 7.58338H2.20833H2.33333V6.44171H2.20833Z" fill="#26386A"/>
<path d="M2.20833 8.73334H1.45C1.13333 8.73334 0.875 8.99167 0.875 9.30834C0.875 9.625 1.13333 9.875 1.45 9.875H2.20833H2.33333V8.73334H2.20833Z" fill="#26386A"/>
</svg>
