<svg width="16" height="16" viewBox="0 0 16 16" fill="none" xmlns="http://www.w3.org/2000/svg">
<path d="M7.63993 9.65334C6.33327 9.65334 5.2666 8.58668 5.2666 7.28001C5.2666 5.97334 6.33327 4.90668 7.63993 4.90668C8.9466 4.90668 10.0133 5.97334 10.0133 7.28001C10.0133 8.58668 8.9466 9.65334 7.63993 9.65334ZM7.63993 5.91335C6.8866 5.91335 6.2666 6.52668 6.2666 7.28668C6.2666 8.04668 6.87993 8.66001 7.63993 8.66001C8.39993 8.66001 9.01327 8.04668 9.01327 7.28668C9.01327 6.52668 8.39993 5.91335 7.63993 5.91335Z" fill="#292D32"/>
<path d="M11.1 13.9667C10.8267 13.9667 10.6 13.74 10.6 13.4667C10.6 12.1867 9.27333 11.1467 7.63999 11.1467C6.00666 11.1467 4.67999 12.1867 4.67999 13.4667C4.67999 13.74 4.45333 13.9667 4.17999 13.9667C3.90666 13.9667 3.67999 13.74 3.67999 13.4667C3.67999 11.64 5.45333 10.1467 7.63999 10.1467C9.82666 10.1467 11.6 11.6334 11.6 13.4667C11.6 13.74 11.3733 13.9667 11.1 13.9667Z" fill="#292D32"/>
<path d="M7.66665 15.1667C3.89998 15.1667 0.833313 12.1 0.833313 8.33333C0.833313 4.56667 3.89998 1.5 7.66665 1.5C8.59331 1.5 9.48665 1.67999 10.3266 2.03333C10.5666 2.13333 10.6866 2.39998 10.6066 2.64665C10.5333 2.86665 10.5 3.1 10.5 3.33333C10.5 3.72667 10.6066 4.11332 10.8133 4.44666C10.92 4.63332 11.06 4.79998 11.22 4.93998C11.8 5.46665 12.66 5.63335 13.3333 5.39335C13.58 5.30002 13.86 5.42667 13.96 5.67334C14.32 6.52001 14.5 7.42001 14.5 8.34001C14.5 12.1 11.4333 15.1667 7.66665 15.1667ZM7.66665 2.5C4.45331 2.5 1.83331 5.11333 1.83331 8.33333C1.83331 11.5533 4.45331 14.1667 7.66665 14.1667C10.88 14.1667 13.5 11.5533 13.5 8.33333C13.5 7.69333 13.3933 7.06 13.1933 6.45333C12.2733 6.61333 11.2666 6.32668 10.56 5.68001C10.3266 5.48001 10.12 5.23334 9.95998 4.96C9.66665 4.48 9.50665 3.91333 9.50665 3.33333C9.50665 3.15333 9.51998 2.98001 9.55331 2.80668C8.94665 2.60001 8.31331 2.5 7.66665 2.5Z" fill="#292D32"/>
<path d="M12.6667 6.50002C11.88 6.50002 11.1333 6.2067 10.5533 5.68003C10.32 5.48003 10.1133 5.23336 9.95333 4.96002C9.66 4.48002 9.5 3.91335 9.5 3.33335C9.5 2.99335 9.55333 2.66003 9.66 2.34003C9.80667 1.88669 10.06 1.46669 10.4 1.12669C11 0.513355 11.8067 0.166687 12.6733 0.166687C13.58 0.166687 14.44 0.553365 15.0267 1.22003C15.5467 1.80003 15.84 2.54669 15.84 3.33335C15.84 3.58669 15.8067 3.84002 15.74 4.08002C15.6733 4.38002 15.5467 4.69336 15.3733 4.9667C14.9867 5.62003 14.3733 6.10669 13.6533 6.33335C13.3533 6.44669 13.02 6.50002 12.6667 6.50002ZM12.6667 1.16669C12.0733 1.16669 11.52 1.40001 11.1133 1.82001C10.88 2.06001 10.7133 2.33333 10.6133 2.64667C10.54 2.86667 10.5067 3.10002 10.5067 3.33335C10.5067 3.72669 10.6133 4.11334 10.82 4.44668C10.9267 4.63334 11.0667 4.8 11.2267 4.94C11.8067 5.46667 12.6667 5.63337 13.34 5.39337C13.8467 5.23337 14.26 4.90002 14.5267 4.45335C14.6467 4.26002 14.7267 4.05337 14.7733 3.8467C14.82 3.67337 14.84 3.50669 14.84 3.33335C14.84 2.80002 14.64 2.2867 14.28 1.8867C13.8733 1.4267 13.2867 1.16669 12.6667 1.16669Z" fill="#292D32"/>
<path d="M13.66 3.82001H11.6667C11.3934 3.82001 11.1667 3.59334 11.1667 3.32001C11.1667 3.04667 11.3934 2.82001 11.6667 2.82001H13.66C13.9334 2.82001 14.16 3.04667 14.16 3.32001C14.16 3.59334 13.94 3.82001 13.66 3.82001Z" fill="#292D32"/>
<path d="M12.6667 4.84001C12.3934 4.84001 12.1667 4.61334 12.1667 4.34001V2.34668C12.1667 2.07335 12.3934 1.84668 12.6667 1.84668C12.94 1.84668 13.1667 2.07335 13.1667 2.34668V4.34001C13.1667 4.62001 12.94 4.84001 12.6667 4.84001Z" fill="#292D32"/>
</svg>
