<svg width="18" height="18" viewBox="0 0 18 18" fill="none" xmlns="http://www.w3.org/2000/svg">
<path d="M13.5417 17.9583C12.6001 17.9583 11.6084 17.7333 10.5834 17.3C9.58342 16.875 8.57508 16.2917 7.59175 15.5833C6.61675 14.8667 5.67508 14.0667 4.78341 13.1917C3.90008 12.3 3.10008 11.3583 2.39175 10.3917C1.67508 9.39166 1.10008 8.39166 0.691748 7.42499C0.258415 6.39166 0.041748 5.39166 0.041748 4.44999C0.041748 3.79999 0.158415 3.18332 0.383415 2.60832C0.616748 2.01666 0.991748 1.46666 1.50008 0.991657C2.14175 0.358323 2.87508 0.0416565 3.65842 0.0416565C3.98342 0.0416565 4.31675 0.116656 4.60008 0.24999C4.92508 0.39999 5.20008 0.62499 5.40008 0.92499L7.33342 3.64999C7.50842 3.89166 7.64175 4.12499 7.73341 4.35832C7.84175 4.60832 7.90008 4.85832 7.90008 5.09999C7.90008 5.41666 7.80841 5.72499 7.63341 6.01666C7.50841 6.24166 7.31675 6.48332 7.07508 6.72499L6.50842 7.31666C6.51675 7.34166 6.52508 7.35832 6.53341 7.37499C6.63342 7.54999 6.83341 7.84999 7.21675 8.29999C7.62508 8.76666 8.00842 9.19166 8.39175 9.58332C8.88342 10.0667 9.29175 10.45 9.67508 10.7667C10.1501 11.1667 10.4584 11.3667 10.6417 11.4583L10.6251 11.5L11.2334 10.9C11.4917 10.6417 11.7417 10.45 11.9834 10.325C12.4417 10.0417 13.0251 9.99166 13.6084 10.2333C13.8251 10.325 14.0584 10.45 14.3084 10.625L17.0751 12.5917C17.3834 12.8 17.6084 13.0667 17.7417 13.3833C17.8667 13.7 17.9251 13.9917 17.9251 14.2833C17.9251 14.6833 17.8334 15.0833 17.6584 15.4583C17.4834 15.8333 17.2667 16.1583 16.9917 16.4583C16.5167 16.9833 16.0001 17.3583 15.4001 17.6C14.8251 17.8333 14.2001 17.9583 13.5417 17.9583ZM3.65842 1.29166C3.20008 1.29166 2.77508 1.49166 2.36675 1.89166C1.98341 2.24999 1.71675 2.64166 1.55008 3.06666C1.37508 3.49999 1.29175 3.95832 1.29175 4.44999C1.29175 5.22499 1.47508 6.06666 1.84175 6.93332C2.21675 7.81666 2.74175 8.73332 3.40841 9.64999C4.07508 10.5667 4.83342 11.4583 5.66675 12.3C6.50008 13.125 7.40008 13.8917 8.32508 14.5667C9.22508 15.225 10.1501 15.7583 11.0667 16.1417C12.4917 16.75 13.8251 16.8917 14.9251 16.4333C15.3501 16.2583 15.7251 15.9917 16.0667 15.6083C16.2584 15.4 16.4084 15.175 16.5334 14.9083C16.6334 14.7 16.6834 14.4833 16.6834 14.2667C16.6834 14.1333 16.6584 14 16.5917 13.85C16.5667 13.8 16.5167 13.7083 16.3584 13.6L13.5917 11.6333C13.4251 11.5167 13.2751 11.4333 13.1334 11.375C12.9501 11.3 12.8751 11.225 12.5917 11.4C12.4251 11.4833 12.2751 11.6083 12.1084 11.775L11.4751 12.4C11.1501 12.7167 10.6501 12.7917 10.2667 12.65L10.0417 12.55C9.70008 12.3667 9.30008 12.0833 8.85841 11.7083C8.45842 11.3667 8.02508 10.9667 7.50008 10.45C7.09175 10.0333 6.68341 9.59166 6.25842 9.09999C5.86675 8.64166 5.58342 8.24999 5.40841 7.92499L5.30841 7.67499C5.25842 7.48332 5.24175 7.37499 5.24175 7.25832C5.24175 6.95832 5.35008 6.69166 5.55841 6.48332L6.18341 5.83332C6.35008 5.66666 6.47508 5.50832 6.55841 5.36666C6.62508 5.25832 6.65008 5.16666 6.65008 5.08332C6.65008 5.01666 6.62508 4.91666 6.58342 4.81666C6.52508 4.68332 6.43341 4.53332 6.31675 4.37499L4.38341 1.64166C4.30008 1.52499 4.20008 1.44166 4.07508 1.38332C3.94175 1.32499 3.80008 1.29166 3.65842 1.29166ZM10.6251 11.5083L10.4917 12.075L10.7167 11.4917C10.6751 11.4833 10.6417 11.4917 10.6251 11.5083Z" fill="#272727"/>
</svg>
