<svg width="20" height="19" viewBox="0 0 20 19" fill="none" xmlns="http://www.w3.org/2000/svg">
<path d="M1.19688 2.75438C1.09929 2.64697 1.03495 2.51357 1.01167 2.37033C0.988387 2.22709 1.00716 2.08018 1.06571 1.94739C1.12426 1.81461 1.22008 1.70167 1.34154 1.62226C1.463 1.54284 1.60489 1.50038 1.75001 1.5H18.25C18.3953 1.50001 18.5374 1.54222 18.6592 1.62149C18.7809 1.70076 18.877 1.81368 18.9358 1.94654C18.9946 2.07939 19.0135 2.22646 18.9903 2.36987C18.9671 2.51328 18.9027 2.64686 18.805 2.75438L12.25 9.75V15.2484C12.2501 15.3719 12.2197 15.4936 12.1614 15.6025C12.1032 15.7114 12.019 15.8043 11.9163 15.8728L8.91626 17.8725C8.80341 17.9478 8.67226 17.9911 8.53677 17.9977C8.40128 18.0044 8.26652 17.9741 8.14684 17.9103C8.02717 17.8464 7.92706 17.7512 7.85718 17.635C7.7873 17.5187 7.75026 17.3857 7.75001 17.25V9.75L1.19688 2.75438Z" stroke="#272727" stroke-width="1.5" stroke-linecap="round" stroke-linejoin="round"/>
</svg>
